<svg xmlns="http://www.w3.org/2000/svg" version="1.1" xmlns:xlink="http://www.w3.org/1999/xlink" xmlns:svgjs="http://svgjs.dev/svgjs" width="1500" height="1500" viewBox="0 0 1500 1500"><rect width="1500" height="1500" fill="#ffffff"></rect><g transform="matrix(0.6666666666666666,0,0,0.6666666666666666,249.39393939393938,579.4168238073786)"><svg viewBox="0 0 396 135" data-background-color="#ffffff" preserveAspectRatio="xMidYMid meet" height="511" width="1500" xmlns="http://www.w3.org/2000/svg" xmlns:xlink="http://www.w3.org/1999/xlink"><g id="tight-bounds" transform="matrix(1,0,0,1,0.2400000000000091,0.09900817809361229)"><svg viewBox="0 0 395.52 134.80181541069607" height="134.80181541069607" width="395.52"><g><svg viewBox="0 0 666.9607254264365 227.3147163104734" height="134.80181541069607" width="395.52"><g transform="matrix(1,0,0,1,271.44072542643653,66.92875262570051)"><svg viewBox="0 0 395.52 93.45721105907236" height="93.45721105907236" width="395.52"><g id="textblocktransform"><svg viewBox="0 0 395.52 93.45721105907236" height="93.45721105907236" width="395.52" id="textblock"><g><svg viewBox="0 0 395.52 93.45721105907236" height="93.45721105907236" width="395.52"><g transform="matrix(1,0,0,1,0,0)"><svg width="395.52" viewBox="1.1 -37.7 161.97 38.190000000000005" height="93.45721105907236" data-palette-color="#8d021f"><g class="wordmark-text-0" data-fill-palette-color="primary" id="text-0"><path d="M25.39-20.95L25.39-20.95 20.51-16.04Q20.14-17.07 19.51-17.88 18.87-18.7 18.08-19.26 17.29-19.82 16.36-20.12 15.43-20.41 14.45-20.41L14.45-20.41Q13.09-20.41 11.88-19.85 10.67-19.29 9.78-18.27 8.89-17.26 8.37-15.87 7.86-14.48 7.86-12.79L7.86-12.79Q7.86-11.43 8.37-10.23 8.89-9.03 9.78-8.13 10.67-7.23 11.88-6.71 13.09-6.2 14.45-6.2L14.45-6.2Q15.43-6.2 16.33-6.47 17.24-6.74 18.03-7.24 18.82-7.74 19.45-8.46 20.07-9.18 20.46-10.06L20.46-10.06 25.34-5.15Q24.41-3.83 23.21-2.78 22-1.73 20.59-1 19.19-0.27 17.64 0.11 16.09 0.49 14.45 0.49L14.45 0.49Q11.69 0.49 9.27-0.55 6.84-1.59 5.02-3.39 3.2-5.2 2.15-7.62 1.1-10.03 1.1-12.79L1.1-12.79Q1.1-15.8 2.15-18.41 3.2-21.02 5.02-22.96 6.84-24.9 9.27-26.03 11.69-27.15 14.45-27.15L14.45-27.15Q16.09-27.15 17.66-26.73 19.24-26.32 20.67-25.52 22.09-24.73 23.3-23.58 24.51-22.44 25.39-20.95ZM53.9-13.31L53.9-13.31Q53.9-10.38 52.85-7.85 51.8-5.32 50-3.48 48.19-1.64 45.76-0.57 43.33 0.49 40.55 0.49L40.55 0.49Q37.79 0.49 35.36-0.57 32.93-1.64 31.11-3.48 29.29-5.32 28.24-7.85 27.19-10.38 27.19-13.31L27.19-13.31Q27.19-16.28 28.24-18.82 29.29-21.36 31.11-23.21 32.93-25.05 35.36-26.1 37.79-27.15 40.55-27.15L40.55-27.15Q43.33-27.15 45.76-26.16 48.19-25.17 50-23.35 51.8-21.53 52.85-18.98 53.9-16.43 53.9-13.31ZM47.19-13.31L47.19-13.31Q47.19-14.92 46.66-16.22 46.14-17.53 45.24-18.47 44.33-19.41 43.12-19.91 41.92-20.41 40.55-20.41L40.55-20.41Q39.18-20.41 37.97-19.91 36.77-19.41 35.87-18.47 34.98-17.53 34.47-16.22 33.96-14.92 33.96-13.31L33.96-13.31Q33.96-11.79 34.47-10.5 34.98-9.2 35.87-8.25 36.77-7.3 37.97-6.75 39.18-6.2 40.55-6.2L40.55-6.2Q41.92-6.2 43.12-6.71 44.33-7.23 45.24-8.15 46.14-9.08 46.66-10.4 47.19-11.72 47.19-13.31ZM82.86-36.55L82.86 0 81.25 0 78.66-3.59Q77.7-2.73 76.64-1.99 75.58-1.25 74.41-0.7 73.24-0.15 72 0.17 70.77 0.49 69.5 0.49L69.5 0.49Q66.74 0.49 64.31-0.55 61.88-1.59 60.07-3.43 58.25-5.27 57.2-7.8 56.15-10.33 56.15-13.31L56.15-13.31Q56.15-16.26 57.2-18.8 58.25-21.34 60.07-23.19 61.88-25.05 64.31-26.1 66.74-27.15 69.5-27.15L69.5-27.15Q70.38-27.15 71.32-27 72.26-26.86 73.15-26.53 74.04-26.2 74.82-25.66 75.61-25.12 76.14-24.34L76.14-24.34 76.14-36.55 82.86-36.55ZM76.14-13.31L76.14-13.31Q76.14-14.67 75.62-15.95 75.09-17.24 74.19-18.23 73.29-19.21 72.08-19.81 70.87-20.41 69.5-20.41L69.5-20.41Q68.13-20.41 66.93-19.92 65.72-19.43 64.83-18.52 63.94-17.6 63.42-16.28 62.91-14.97 62.91-13.31L62.91-13.31Q62.91-11.87 63.42-10.57 63.94-9.28 64.83-8.3 65.72-7.32 66.93-6.76 68.13-6.2 69.5-6.2L69.5-6.2Q70.87-6.2 72.08-6.8 73.29-7.4 74.19-8.39 75.09-9.38 75.62-10.66 76.14-11.94 76.14-13.31ZM110.83-21.46L98.33-6.4Q98.72-6.27 99.11-6.24 99.5-6.2 99.89-6.2L99.89-6.2Q100.87-6.2 101.77-6.47 102.68-6.74 103.47-7.24 104.26-7.74 104.89-8.46 105.51-9.18 105.9-10.06L105.9-10.06 110.78-5.15Q109.86-3.83 108.65-2.78 107.44-1.73 106.03-1 104.63-0.27 103.08 0.11 101.53 0.49 99.89 0.49L99.89 0.49Q97.14 0.49 94.71-0.54 92.28-1.56 90.46-3.39 88.64-5.22 87.59-7.75 86.54-10.28 86.54-13.31L86.54-13.31Q86.54-16.41 87.59-18.97 88.64-21.53 90.46-23.34 92.28-25.15 94.71-26.15 97.14-27.15 99.89-27.15L99.89-27.15Q101.53-27.15 103.09-26.76 104.66-26.37 106.06-25.63 107.46-24.9 108.68-23.84 109.9-22.78 110.83-21.46L110.83-21.46ZM93.99-9.84L101.75-20.14Q101.29-20.31 100.83-20.36 100.38-20.41 99.89-20.41L99.89-20.41Q98.53-20.41 97.32-19.91 96.11-19.41 95.22-18.48 94.33-17.55 93.82-16.25 93.3-14.94 93.3-13.31L93.3-13.31Q93.3-12.94 93.34-12.48 93.38-12.01 93.46-11.54 93.55-11.06 93.67-10.62 93.79-10.18 93.99-9.84L93.99-9.84ZM122.04-33.25L122.04-33.25Q122.04-32.32 121.68-31.52 121.33-30.71 120.72-30.11 120.11-29.52 119.29-29.16 118.47-28.81 117.54-28.81L117.54-28.81Q116.62-28.81 115.8-29.16 114.98-29.52 114.38-30.11 113.78-30.71 113.43-31.52 113.08-32.32 113.08-33.25L113.08-33.25Q113.08-34.16 113.43-34.97 113.78-35.79 114.38-36.39 114.98-36.99 115.8-37.34 116.62-37.7 117.54-37.7L117.54-37.7Q118.47-37.7 119.29-37.34 120.11-36.99 120.72-36.39 121.33-35.79 121.68-34.97 122.04-34.16 122.04-33.25ZM120.89-26.15L120.89 0 114.17 0 114.17-26.15 120.89-26.15ZM151.28-26.1L151.28 0 149.67 0 147.08-3.59Q146.13-2.73 145.07-1.99 144.01-1.25 142.83-0.7 141.66-0.15 140.43 0.17 139.2 0.49 137.93 0.49L137.93 0.49Q135.17 0.49 132.74-0.44 130.31-1.37 128.49-3.14 126.67-4.91 125.62-7.47 124.57-10.03 124.57-13.31L124.57-13.31Q124.57-16.36 125.62-18.91 126.67-21.46 128.49-23.29 130.31-25.12 132.74-26.14 135.17-27.15 137.93-27.15L137.93-27.15Q139.2-27.15 140.44-26.83 141.69-26.51 142.86-25.95 144.03-25.39 145.09-24.63 146.15-23.88 147.08-23L147.08-23 149.67-26.1 151.28-26.1ZM144.57-13.31L144.57-13.31Q144.57-14.67 144.04-15.95 143.52-17.24 142.61-18.23 141.71-19.21 140.5-19.81 139.29-20.41 137.93-20.41L137.93-20.41Q136.56-20.41 135.35-19.95 134.14-19.48 133.25-18.58 132.36-17.68 131.85-16.35 131.34-15.01 131.34-13.31L131.34-13.31Q131.34-11.6 131.85-10.27 132.36-8.94 133.25-8.03 134.14-7.13 135.35-6.67 136.56-6.2 137.93-6.2L137.93-6.2Q139.29-6.2 140.5-6.8 141.71-7.4 142.61-8.39 143.52-9.38 144.04-10.66 144.57-11.94 144.57-13.31ZM163.07-36.55L163.07 0 156.36 0 156.36-36.55 163.07-36.55Z" fill="#000000" data-fill-palette-color="primary"></path></g></svg></g></svg></g></svg></g></svg></g><g><svg viewBox="0 0 227.3147163104734 227.3147163104734" height="227.3147163104734" width="227.3147163104734"><g><svg></svg></g><g id="icon-0"><svg viewBox="0 0 227.3147163104734 227.3147163104734" height="227.3147163104734" width="227.3147163104734"><g><path d="M0 113.657c0-62.771 50.886-113.657 113.657-113.657 62.771 0 113.657 50.886 113.658 113.657 0 62.771-50.886 113.657-113.658 113.658-62.771 0-113.657-50.886-113.657-113.658zM113.657 218.887c58.117 0 105.229-47.113 105.23-105.23 0-58.117-47.113-105.229-105.23-105.229-58.117 0-105.229 47.113-105.229 105.229 0 58.117 47.113 105.229 105.229 105.23z" data-fill-palette-color="accent" fill="#000000" stroke="transparent"></path></g><g transform="matrix(1,0,0,1,47.89943872869311,66.54214784446577)"><svg viewBox="0 0 131.51583885308716 94.23042062154184" height="94.23042062154184" width="131.51583885308716"><g><svg xmlns="http://www.w3.org/2000/svg" xmlns:xlink="http://www.w3.org/1999/xlink" version="1.1" x="0" y="0" viewBox="1.5 15.2 97 69.5" enable-background="new 0 0 100 100" xml:space="preserve" height="94.23042062154184" width="131.51583885308716" class="icon-cg-0" data-fill-palette-color="accent" id="cg-0"><path d="M7.2 84.7h85.5c3.2 0 5.8-2.6 5.8-5.8v-2.5c0-0.5-0.2-1-0.5-1.4l-4.3-5.3c-0.7-0.9-1.1-1.9-1.1-3v-5-3.2-9.2l0 0V23.7c0-4.7-3.8-8.5-8.5-8.5H52.4 15.9c-4.7 0-8.5 3.8-8.5 8.5v34.8 1.9 6.2c0 1.1-0.4 2.2-1.1 3L2 75.1c-0.3 0.4-0.5 0.9-0.5 1.4V79C1.5 82.2 4.1 84.7 7.2 84.7zM59.2 76.4c0 1.6-1.3 2.9-2.9 2.9H43.8c-1.6 0-2.9-1.3-2.9-2.9v-0.6h18.4V76.4zM15.9 60.8v-2.2V23.7c0 0 0 0 0 0h40.3 27.9c0 0 0 0 0 0v34.9 2.2 0.6h0v0.4 5.5H15.9V60.8zM54.9 32.9l3.9 2.2-13.7 24-3.9-2.2L54.9 32.9zM38.5 38l-8 8 8 8-3.2 3.2-8-8L24.2 46l3.2-3.2 8-8L38.5 38zM72.6 42.8l3.2 3.2-3.2 3.2-8 8L61.5 54l8-8-8-8 3.2-3.2L72.6 42.8z" fill="#000000" data-fill-palette-color="accent"></path></svg></g></svg></g></svg></g></svg></g></svg></g><defs></defs></svg><rect width="395.52" height="134.80181541069607" fill="none" stroke="none" visibility="hidden"></rect></g></svg></g></svg>