<svg xmlns="http://www.w3.org/2000/svg" width="1500" height="1500"><path d="M0 0h1500v1500H0z"/><svg viewBox="0 0 396 135" data-background-color="#ffffff" height="511" width="1500" xmlns="http://www.w3.org/2000/svg" xmlns:xlink="http://www.w3.org/1999/xlink" transform="translate(249.394 579.417) scale(.66667)"><svg viewBox="0 0 395.52 134.802" height="134.802" width="395.52" transform="translate(.24 .099)"><svg viewBox="0 0 666.961 227.315" height="134.802" width="395.52"><svg viewBox="0 0 395.52 93.457" height="93.457" width="395.52" transform="translate(271.44 66.929)"><svg viewBox="0 0 395.52 93.457" height="93.457" width="395.52"><svg viewBox="0 0 395.52 93.457" height="93.457" width="395.52"><svg width="395.52" viewBox="1.1 -37.7 161.97 38.19" height="93.457" data-palette-color="#8d021f"><path d="m25.39-20.95-4.88 4.91q-.37-1.03-1-1.84-.64-.82-1.43-1.38-.79-.56-1.72-.86-.93-.29-1.91-.29-1.36 0-2.57.56-1.21.56-2.1 1.58-.89 1.01-1.41 2.4-.51 1.39-.51 3.08 0 1.36.51 2.56.52 1.2 1.41 2.1.89.9 2.1 1.42 1.21.51 2.57.51.98 0 1.88-.27.91-.27 1.7-.77.79-.5 1.42-1.22.62-.72 1.01-1.6l4.88 4.91q-.93 1.32-2.13 2.37Q22-1.73 20.59-1q-1.4.73-2.95 1.11-1.55.38-3.19.38-2.76 0-5.18-1.04-2.43-1.04-4.25-2.84Q3.2-5.2 2.15-7.62 1.1-10.03 1.1-12.79q0-3.01 1.05-5.62 1.05-2.61 2.87-4.55t4.25-3.07q2.42-1.12 5.18-1.12 1.64 0 3.21.42 1.58.41 3.01 1.21 1.42.79 2.63 1.94 1.21 1.14 2.09 2.63Zm28.51 7.64q0 2.93-1.05 5.46T50-3.48q-1.81 1.84-4.24 2.91Q43.33.49 40.55.49q-2.76 0-5.19-1.06-2.43-1.07-4.25-2.91-1.82-1.84-2.87-4.37-1.05-2.53-1.05-5.46 0-2.97 1.05-5.51 1.05-2.54 2.87-4.39 1.82-1.84 4.25-2.89 2.43-1.05 5.19-1.05 2.78 0 5.21.99T50-23.35q1.8 1.82 2.85 4.37t1.05 5.67Zm-6.71 0q0-1.61-.53-2.91-.52-1.31-1.42-2.25-.91-.94-2.12-1.44-1.2-.5-2.57-.5-1.37 0-2.58.5-1.2.5-2.1 1.44-.89.94-1.4 2.25-.51 1.3-.51 2.91 0 1.52.51 2.81.51 1.3 1.4 2.25.9.95 2.1 1.5 1.21.55 2.58.55t2.57-.51q1.21-.52 2.12-1.44.9-.93 1.42-2.25.53-1.32.53-2.91Zm35.67-23.24V0h-1.61l-2.59-3.59q-.96.86-2.02 1.6-1.06.74-2.23 1.29T72 .17q-1.23.32-2.5.32-2.76 0-5.19-1.04-2.43-1.04-4.24-2.88-1.82-1.84-2.87-4.37-1.05-2.53-1.05-5.51 0-2.95 1.05-5.49t2.87-4.39q1.81-1.86 4.24-2.91t5.19-1.05q.88 0 1.82.15.94.14 1.83.47.89.33 1.67.87.79.54 1.32 1.32v-12.21h6.72Zm-6.72 23.24q0-1.36-.52-2.64-.53-1.29-1.43-2.28-.9-.98-2.11-1.58-1.21-.6-2.58-.6t-2.57.49q-1.21.49-2.1 1.4-.89.92-1.41 2.24-.51 1.31-.51 2.97 0 1.44.51 2.74.52 1.29 1.41 2.27.89.98 2.1 1.54 1.2.56 2.57.56 1.37 0 2.58-.6t2.11-1.59q.9-.99 1.43-2.27.52-1.28.52-2.65Zm34.69-8.15L98.33-6.4q.39.13.78.16.39.04.78.04.98 0 1.88-.27.91-.27 1.7-.77.79-.5 1.42-1.22.62-.72 1.01-1.6l4.88 4.91q-.92 1.32-2.13 2.37T106.03-1q-1.4.73-2.95 1.11-1.55.38-3.19.38-2.75 0-5.18-1.03-2.43-1.02-4.25-2.85-1.82-1.83-2.87-4.36-1.05-2.53-1.05-5.56 0-3.1 1.05-5.66t2.87-4.37q1.82-1.81 4.25-2.81 2.43-1 5.18-1 1.64 0 3.2.39 1.57.39 2.97 1.13 1.4.73 2.62 1.79 1.22 1.06 2.15 2.38ZM93.99-9.84l7.76-10.3q-.46-.17-.92-.22-.45-.05-.94-.05-1.36 0-2.57.5-1.21.5-2.1 1.43-.89.93-1.4 2.23-.52 1.31-.52 2.94 0 .37.04.83.04.47.12.94.09.48.21.92.12.44.32.78Zm28.05-23.41q0 .93-.36 1.73-.35.81-.96 1.41-.61.59-1.43.95-.82.35-1.75.35-.92 0-1.74-.35-.82-.36-1.42-.95-.6-.6-.95-1.41-.35-.8-.35-1.73 0-.91.35-1.72.35-.82.95-1.42t1.42-.95q.82-.36 1.74-.36.93 0 1.75.36.82.35 1.43.95t.96 1.42q.36.81.36 1.72Zm-1.15 7.1V0h-6.72v-26.15h6.72Zm30.39.05V0h-1.61l-2.59-3.59q-.95.86-2.01 1.6-1.06.74-2.24 1.29-1.17.55-2.4.87-1.23.32-2.5.32-2.76 0-5.19-.93-2.43-.93-4.25-2.7-1.82-1.77-2.87-4.33t-1.05-5.84q0-3.05 1.05-5.6t2.87-4.38q1.82-1.83 4.25-2.85 2.43-1.01 5.19-1.01 1.27 0 2.51.32 1.25.32 2.42.88t2.23 1.32q1.06.75 1.99 1.63l2.59-3.1h1.61Zm-6.71 12.79q0-1.36-.53-2.64-.52-1.29-1.43-2.28-.9-.98-2.11-1.58-1.21-.6-2.57-.6-1.37 0-2.58.46-1.21.47-2.1 1.37-.89.9-1.4 2.23-.51 1.34-.51 3.04 0 1.71.51 3.04t1.4 2.24q.89.9 2.1 1.36 1.21.47 2.58.47 1.36 0 2.57-.6 1.21-.6 2.11-1.59.91-.99 1.43-2.27.53-1.28.53-2.65Zm18.5-23.24V0h-6.71v-36.55h6.71Z" fill="#fff" data-fill-palette-color="primary" class="wordmark-text-0"/></svg></svg></svg></svg><svg viewBox="0 0 227.315 227.315" height="227.315" width="227.315"><svg/><svg viewBox="0 0 227.315 227.315" height="227.315" width="227.315"><path d="M0 113.657C0 50.886 50.886 0 113.657 0c62.771 0 113.657 50.886 113.658 113.657 0 62.771-50.886 113.657-113.658 113.658C50.886 227.315 0 176.429 0 113.657zm113.657 105.23c58.117 0 105.229-47.113 105.23-105.23 0-58.117-47.113-105.229-105.23-105.229C55.54 8.428 8.428 55.541 8.428 113.657c0 58.117 47.113 105.229 105.229 105.23z" data-fill-palette-color="accent" fill="#fff" stroke="transparent"/><svg viewBox="0 0 131.516 94.23" height="94.23" width="131.516" transform="translate(47.9 66.542)"><svg xmlns="http://www.w3.org/2000/svg" xmlns:xlink="http://www.w3.org/1999/xlink" viewBox="1.5 15.2 97 69.5" xml:space="preserve" height="94.23" width="131.516" class="icon-cg-0" data-fill-palette-color="accent"><path d="M7.2 84.7h85.5c3.2 0 5.8-2.6 5.8-5.8v-2.5c0-.5-.2-1-.5-1.4l-4.3-5.3c-.7-.9-1.1-1.9-1.1-3v-43c0-4.7-3.8-8.5-8.5-8.5H15.9c-4.7 0-8.5 3.8-8.5 8.5v42.9c0 1.1-.4 2.2-1.1 3L2 75.1c-.3.4-.5.9-.5 1.4V79c0 3.2 2.6 5.7 5.7 5.7zm52-8.3c0 1.6-1.3 2.9-2.9 2.9H43.8c-1.6 0-2.9-1.3-2.9-2.9v-.6h18.4v.6zM15.9 60.8V23.7h68.2v43.6H15.9v-6.5zm39-27.9 3.9 2.2-13.7 24-3.9-2.2 13.7-24zM38.5 38l-8 8 8 8-3.2 3.2-8-8-3.1-3.2 3.2-3.2 8-8 3.1 3.2zm34.1 4.8 3.2 3.2-3.2 3.2-8 8-3.1-3.2 8-8-8-8 3.2-3.2 7.9 8z" fill="#fff" data-fill-palette-color="accent"/></svg></svg></svg></svg></svg></svg></svg></svg>